<?xml version="1.0" standalone="no"?><!DOCTYPE svg PUBLIC "-//W3C//DTD SVG 1.1//EN" "http://www.w3.org/Graphics/SVG/1.1/DTD/svg11.dtd"><svg t="1719921584240" class="icon" viewBox="0 0 1024 1024" version="1.1" xmlns="http://www.w3.org/2000/svg" p-id="43961" xmlns:xlink="http://www.w3.org/1999/xlink" width="200" height="200"><path d="M499.254857 705.28H441.234286l-39.131429-41.179429a24.96 24.96 0 0 0-18.102857-7.881142c-6.802286 0-13.312 2.834286-18.102857 7.899428-4.809143 5.046857-7.497143 11.885714-7.497143 19.053714 0 7.131429 2.706286 13.988571 7.497143 19.053715l2.925714 3.072H256c-140.781714 0-256-119.04-256-264.466286 0-136.685714 98.121143-246.912 230.4-264.466286C281.6 70.564571 388.224 0 512 0c157.842286 0 285.842286 114.614857 315.721143 264.466286C934.4 273.28 1024 370.249143 1024 484.809143c0 123.483429-93.878857 220.489143-213.376 220.489143H571.666286l75.922285-79.926857c2.377143-2.505143 4.260571-5.485714 5.540572-8.740572a28.196571 28.196571 0 0 0 0-20.626286 27.081143 27.081143 0 0 0-5.540572-8.740571 25.526857 25.526857 0 0 0-8.301714-5.851429 24.448 24.448 0 0 0-19.602286 0c-3.108571 1.371429-5.924571 3.346286-8.301714 5.851429l-112.128 118.034286z" fill="#FFCD1A" p-id="43962"></path><path d="M472.813714 735.835429l-68.132571-71.734858a25.581714 25.581714 0 0 0-8.32-5.851428 24.502857 24.502857 0 0 0-19.584 0c-3.108571 1.371429-5.942857 3.346286-8.32 5.851428s-4.260571 5.485714-5.540572 8.740572a28.214857 28.214857 0 0 0 0 20.626286c1.28 3.291429 3.163429 6.253714 5.540572 8.758857l86.016 90.514285c3.456 3.657143 7.844571 6.162286 12.617143 7.277715 4.790857 1.097143 9.782857 0.731429 14.372571-1.060572a25.234286 25.234286 0 0 0 9.965714-6.509714l158.72-167.076571c4.809143-5.046857 7.497143-11.885714 7.497143-19.053715 0-7.131429-2.688-14.006857-7.497143-19.053714a24.978286 24.978286 0 0 0-18.102857-7.899429c-6.765714 0-13.293714 2.834286-18.102857 7.881143l-141.129143 148.608v-0.018285z m285.257143-301.312l30.610286 2.413714V768.914286C788.662857 891.684571 543.963429 1024 515.931429 1024c-30.573714 0-272.713143-132.333714-272.713143-255.049143V436.955429l33.133714-2.413715s38.235429-2.413714 107.044571-24.064c68.809143-24.064 114.688-50.523429 114.688-50.523428l17.865143-9.636572 20.388572 9.618286s43.337143 26.477714 114.688 50.523429c66.285714 24.064 107.062857 24.064 107.062857 24.064z" fill="#02C539" p-id="43963"></path></svg>