<?xml version="1.0" standalone="no"?><!DOCTYPE svg PUBLIC "-//W3C//DTD SVG 1.1//EN" "http://www.w3.org/Graphics/SVG/1.1/DTD/svg11.dtd"><svg t="1718979092079" class="icon" viewBox="0 0 1049 1024" version="1.1" xmlns="http://www.w3.org/2000/svg" p-id="1124" xmlns:xlink="http://www.w3.org/1999/xlink" width="204.8828125" height="200"><path d="M255.677011 152.133389c0 422.23073 272.977056 482.295861 272.977056 482.295862 288.771993-125.402492 253.410648-468.671586 253.410648-468.671586-168.937532 0-253.410648-141.693332-253.410648-141.693332-92.177009 152.590142-272.977056 128.069057-272.977056 128.069056z" fill="#00CCC6" p-id="1125"></path><path d="M782.064715 165.757665c-168.937532 0-253.410648-141.693332-253.410648-141.693332v610.364918c287.445236-126.724899 253.410648-468.671586 253.410648-468.671586z" fill="#00B5B0" p-id="1126"></path><path d="M142.615537 730.721382l29.828114-91.781157 112.939674-13.328473-84.373066-74.572462 29.815065-91.785506-93.290615 54.005548-85.939074-52.217688 29.558413 98.206142L0 628.635019l107.941496 6.498935z" fill="#FFA1AE" p-id="1127"></path><path d="M487.55939 919.895226l-78.074231-56.724313 22.228623-111.534616-97.001185 57.211516L256.634016 752.11915l22.541824 105.414132-76.22112 65.589661 102.534416 2.253313 40.911975 98.615044 39.528668-100.659555zM800.047714 752.11915l-78.07858 56.728663-99.202298-55.606357 24.425385 109.929457-78.069881 56.728663 107.219392 11.140411 38.819614 92.755562 33.834487-96.818484 106.427687-8.443397-83.511761-68.695579z" fill="#FF7F91" p-id="1128"></path><path d="M817.152009 459.245084l29.823764 91.794206-83.537861 77.165076 112.095769 10.735859 29.828114 91.785507 43.735142-98.536744 100.211503-8.260695-81.632551-62.079193 24.869087-103.835073-91.141702 58.194621z" fill="#FFA1AE" p-id="1129"></path><path d="M420.203619 313.014677c-6.525036 7.364591-6.542436 19.714309-0.039151 27.444302l65.889814 78.287381c6.507636 7.729993 17.404446 7.956194 24.216583 0.500253l139.000667-151.989838c6.812138-7.455941 7.22104-18.026499 0.917855-23.49448-6.316235-5.47233-17.961249-4.806777-25.873942 1.470308l-112.043568 88.905791c-7.912694 6.281435-21.167217 6.685987-29.454013 0.900455l-35.691947-24.895188c-8.282446-5.794232-20.397263-4.497925-26.922298 2.871016z" fill="#FFFFFF" p-id="1130"></path></svg>